<svg width="1200" height="480" viewBox="0 0 1200 480" fill="none" xmlns="http://www.w3.org/2000/svg">
<rect width="1200" height="480" fill="#071324"/>
<mask id="mask0_1301_18023" style="mask-type:alpha" maskUnits="userSpaceOnUse" x="0" y="0" width="1200" height="480">
<rect width="1200" height="480" fill="#EAD9CC"/>
</mask>
<g mask="url(#mask0_1301_18023)">
<g filter="url(#filter0_d_1301_18023)">
<rect width="838.858" height="622.029" rx="24" transform="matrix(0.902585 -0.430511 0.707107 0.707107 -156 201.139)" fill="#0F1E34"/>
</g>
<rect width="185.66" height="391.648" rx="8" transform="matrix(0.902585 -0.430511 0.707107 0.707107 16.0742 317.209)" fill="#213450"/>
<rect width="525.811" height="299.495" rx="8" transform="matrix(0.902585 -0.430511 0.707107 0.707107 117.382 113.203)" fill="#213450"/>
<rect width="298.14" height="113.835" rx="8" transform="matrix(0.902585 -0.430511 0.707107 0.707107 260.771 213.232)" fill="#0F1E34"/>
<rect width="185.66" height="107.059" rx="8" transform="matrix(0.902585 -0.430511 0.707107 0.707107 -89.334 211.801)" fill="#213450"/>
<path fill-rule="evenodd" clip-rule="evenodd" d="M153.379 380.444C151.817 378.882 152.167 376.844 154.161 375.893L220.331 344.332C222.324 343.381 225.207 343.876 226.769 345.438L230.695 349.364C232.257 350.926 231.907 352.964 229.913 353.915L163.744 385.476C161.75 386.427 158.867 385.931 157.305 384.369L153.379 380.444Z" fill="#465E82"/>
<path fill-rule="evenodd" clip-rule="evenodd" d="M278.911 505.975C277.349 504.413 277.699 502.375 279.693 501.424L345.863 469.863C347.857 468.912 350.739 469.408 352.302 470.97L356.227 474.895C357.789 476.457 357.439 478.495 355.445 479.446L289.276 511.007C287.282 511.958 284.399 511.463 282.837 509.901L278.911 505.975Z" fill="#465E82"/>
<path fill-rule="evenodd" clip-rule="evenodd" d="M172.545 399.61C170.983 398.048 171.333 396.01 173.327 395.059L239.497 363.498C241.49 362.547 244.373 363.042 245.935 364.604L249.861 368.53C251.423 370.092 251.073 372.13 249.079 373.081L182.91 404.642C180.916 405.593 178.033 405.098 176.471 403.535L172.545 399.61Z" fill="#465E82"/>
<path fill-rule="evenodd" clip-rule="evenodd" d="M666.784 124.241C665.221 122.678 665.571 120.641 667.565 119.69L733.735 88.1289C735.729 87.1778 738.612 87.6732 740.174 89.2353L744.099 93.161C745.661 94.7231 745.311 96.7604 743.317 97.7115L677.148 129.273C675.154 130.224 672.271 129.728 670.709 128.166L666.784 124.241Z" fill="#465E82"/>
<path fill-rule="evenodd" clip-rule="evenodd" d="M645.701 103.159C644.139 101.596 644.489 99.5591 646.483 98.608L712.653 67.0468C714.647 66.0958 717.529 66.5911 719.092 68.1532L723.017 72.079C724.579 73.6411 724.229 75.6784 722.235 76.6294L656.066 108.191C654.072 109.142 651.189 108.646 649.627 107.084L645.701 103.159Z" fill="#465E82"/>
<path fill-rule="evenodd" clip-rule="evenodd" d="M625.578 83.0355C624.016 81.4734 624.366 79.436 626.36 78.485L692.53 46.9238C694.524 45.9727 697.406 46.4681 698.969 48.0302L702.894 51.9559C704.456 53.518 704.106 55.5553 702.112 56.5064L635.943 88.0676C633.949 89.0186 631.066 88.5233 629.504 86.9612L625.578 83.0355Z" fill="#465E82"/>
<path fill-rule="evenodd" clip-rule="evenodd" d="M605.454 62.9124C603.892 61.3503 604.242 59.313 606.236 58.3619L672.406 26.8008C674.4 25.8497 677.282 26.345 678.844 27.9071L682.77 31.8329C684.332 33.395 683.982 35.4323 681.988 36.3833L615.819 67.9445C613.825 68.8956 610.942 68.4002 609.38 66.8382L605.454 62.9124Z" fill="#465E82"/>
<rect width="13.5518" height="13.5518" rx="5" transform="matrix(0.902585 -0.430511 0.707107 0.707107 126.088 389.283)" fill="#465E82"/>
<rect width="13.5518" height="13.5518" rx="5" transform="matrix(0.902585 -0.430511 0.707107 0.707107 145.253 408.449)" fill="#465E82"/>
<rect width="13.5518" height="13.5518" rx="5" transform="matrix(0.902585 -0.430511 0.707107 0.707107 639.491 133.08)" fill="#465E82"/>
<rect width="13.5518" height="13.5518" rx="5" transform="matrix(0.902585 -0.430511 0.707107 0.707107 618.409 111.998)" fill="#465E82"/>
<rect width="13.5518" height="13.5518" rx="5" transform="matrix(0.902585 -0.430511 0.707107 0.707107 598.286 91.875)" fill="#465E82"/>
<rect width="13.5518" height="13.5518" rx="5" transform="matrix(0.902585 -0.430511 0.707107 0.707107 578.163 71.752)" fill="#465E82"/>
<path fill-rule="evenodd" clip-rule="evenodd" d="M66.6292 329.825C65.0671 328.262 65.4172 326.225 67.4111 325.274L175.168 273.877C177.162 272.925 180.045 273.421 181.607 274.983L190.324 283.7C191.886 285.262 191.536 287.299 189.542 288.25L81.785 339.648C79.7911 340.599 76.9083 340.104 75.3462 338.542L66.6292 329.825Z" fill="#465E82"/>
<path fill-rule="evenodd" clip-rule="evenodd" d="M171.87 122.528C170.308 120.966 170.658 118.928 172.652 117.977L514.035 -44.8538C516.029 -45.8049 518.911 -45.3095 520.473 -43.7474L529.19 -35.0304C530.752 -33.4683 530.402 -31.431 528.408 -30.4799L187.026 132.351C185.032 133.302 182.15 132.807 180.587 131.245L171.87 122.528Z" fill="#465E82"/>
<path fill-rule="evenodd" clip-rule="evenodd" d="M89.172 352.367C88.391 351.586 88.566 350.568 89.563 350.092L150.781 320.893C151.778 320.417 153.219 320.665 154 321.446L160.754 328.2C161.535 328.981 161.36 330 160.363 330.475L99.1456 359.675C98.1486 360.15 96.7072 359.903 95.9262 359.121L89.172 352.367Z" fill="#0F1E34"/>
<path fill-rule="evenodd" clip-rule="evenodd" d="M194.413 145.069C193.632 144.287 193.807 143.269 194.804 142.793L444.39 23.7471C445.387 23.2716 446.828 23.5193 447.609 24.3003L454.363 31.0545C455.144 31.8355 454.969 32.8542 453.972 33.3297L204.387 152.376C203.39 152.851 201.948 152.604 201.167 151.823L194.413 145.069Z" fill="#0F1E34"/>
<path fill-rule="evenodd" clip-rule="evenodd" d="M213.578 164.235C212.797 163.453 212.972 162.435 213.969 161.959L331.453 105.923C332.449 105.447 333.891 105.695 334.672 106.476L341.426 113.23C342.207 114.011 342.032 115.03 341.035 115.505L223.552 171.542C222.555 172.017 221.113 171.77 220.332 170.989L213.578 164.235Z" fill="#0F1E34"/>
<path fill-rule="evenodd" clip-rule="evenodd" d="M172.54 435.736C171.759 434.955 171.934 433.937 172.931 433.461L234.149 404.262C235.146 403.786 236.587 404.034 237.368 404.815L244.122 411.569C244.903 412.35 244.728 413.369 243.731 413.845L182.514 443.044C181.517 443.519 180.075 443.272 179.294 442.491L172.54 435.736Z" fill="#0F1E34"/>
<path fill-rule="evenodd" clip-rule="evenodd" d="M208.954 472.151C208.173 471.369 208.348 470.351 209.345 469.875L295.026 429.008C296.023 428.532 297.464 428.78 298.246 429.561L305 436.315C305.781 437.096 305.606 438.115 304.609 438.59L218.928 479.458C217.931 479.933 216.489 479.686 215.708 478.905L208.954 472.151Z" fill="#0F1E34"/>
<path fill-rule="evenodd" clip-rule="evenodd" d="M106.42 369.615C105.639 368.834 105.814 367.816 106.811 367.34L190.046 327.639C191.043 327.164 192.484 327.411 193.265 328.192L200.019 334.947C200.8 335.728 200.625 336.746 199.628 337.222L116.394 376.923C115.397 377.398 113.955 377.151 113.174 376.37L106.42 369.615Z" fill="#0F1E34"/>
<path fill-rule="evenodd" clip-rule="evenodd" d="M190.747 453.944C189.966 453.162 190.141 452.144 191.138 451.668L297.613 400.882C298.61 400.407 300.051 400.655 300.832 401.436L307.587 408.19C308.368 408.971 308.193 409.989 307.196 410.465L200.721 461.251C199.724 461.726 198.282 461.479 197.501 460.698L190.747 453.944Z" fill="#0F1E34"/>
<path fill-rule="evenodd" clip-rule="evenodd" d="M350.346 276.657C349.349 277.132 347.908 276.884 347.127 276.103L338.724 267.7C337.942 266.919 338.118 265.9 339.114 265.425L347.312 261.515C348.309 261.039 349.75 261.287 350.531 262.068L358.935 270.471C359.716 271.252 359.541 272.271 358.544 272.747L350.346 276.657Z" fill="#465E82"/>
<path fill-rule="evenodd" clip-rule="evenodd" d="M425.916 240.612C424.92 241.087 423.478 240.839 422.697 240.058L414.294 231.655C413.513 230.874 413.688 229.855 414.685 229.38L422.882 225.47C423.879 224.994 425.321 225.242 426.102 226.023L434.505 234.426C435.286 235.207 435.111 236.226 434.114 236.702L425.916 240.612Z" fill="#465E82"/>
<path fill-rule="evenodd" clip-rule="evenodd" d="M501.486 204.567C500.489 205.042 499.047 204.795 498.266 204.014L472.08 177.827C471.299 177.046 471.474 176.027 472.471 175.552L480.668 171.642C481.665 171.166 483.106 171.414 483.888 172.195L510.074 198.381C510.855 199.163 510.68 200.181 509.683 200.657L501.486 204.567Z" fill="#465E82"/>
<path fill-rule="evenodd" clip-rule="evenodd" d="M369.238 267.647C368.241 268.122 366.799 267.875 366.018 267.094L350.127 251.203C349.346 250.421 349.521 249.403 350.518 248.927L358.716 245.017C359.713 244.542 361.154 244.789 361.935 245.57L377.826 261.462C378.607 262.243 378.432 263.261 377.435 263.737L369.238 267.647Z" fill="#465E82"/>
<path fill-rule="evenodd" clip-rule="evenodd" d="M444.809 231.6C443.812 232.075 442.371 231.828 441.59 231.047L421.955 211.412C421.174 210.631 421.349 209.612 422.346 209.137L430.543 205.227C431.54 204.751 432.981 204.999 433.763 205.78L453.398 225.415C454.179 226.196 454.004 227.214 453.007 227.69L444.809 231.6Z" fill="#465E82"/>
<path fill-rule="evenodd" clip-rule="evenodd" d="M520.378 195.557C519.381 196.032 517.94 195.785 517.159 195.004L501.268 179.113C500.487 178.332 500.662 177.313 501.659 176.837L509.856 172.927C510.853 172.452 512.295 172.7 513.076 173.481L528.967 189.372C529.748 190.153 529.573 191.171 528.576 191.647L520.378 195.557Z" fill="#465E82"/>
<path fill-rule="evenodd" clip-rule="evenodd" d="M388.131 258.635C387.134 259.111 385.693 258.863 384.912 258.082L376.509 249.679C375.728 248.898 375.903 247.879 376.9 247.403L385.097 243.493C386.094 243.018 387.535 243.266 388.316 244.047L396.72 252.45C397.501 253.231 397.326 254.25 396.329 254.725L388.131 258.635Z" fill="#465E82"/>
<path fill-rule="evenodd" clip-rule="evenodd" d="M463.702 222.59C462.705 223.066 461.263 222.818 460.482 222.037L445.995 207.55C445.214 206.769 445.389 205.75 446.386 205.275L454.584 201.365C455.581 200.889 457.022 201.137 457.803 201.918L472.29 216.405C473.071 217.186 472.896 218.205 471.899 218.68L463.702 222.59Z" fill="#465E82"/>
<path fill-rule="evenodd" clip-rule="evenodd" d="M539.271 186.545C538.274 187.021 536.833 186.773 536.052 185.992L512.205 162.145C511.424 161.364 511.599 160.345 512.596 159.87L520.793 155.96C521.79 155.484 523.232 155.732 524.013 156.513L547.859 180.36C548.64 181.141 548.465 182.16 547.468 182.635L539.271 186.545Z" fill="#465E82"/>
<path fill-rule="evenodd" clip-rule="evenodd" d="M558.164 177.534C557.167 178.009 555.725 177.761 554.944 176.98L526.417 148.454C525.636 147.673 525.811 146.654 526.808 146.178L535.006 142.268C536.003 141.793 537.444 142.041 538.225 142.822L566.752 171.348C567.533 172.129 567.358 173.148 566.361 173.624L558.164 177.534Z" fill="#465E82"/>
<path fill-rule="evenodd" clip-rule="evenodd" d="M407.023 249.623C406.026 250.099 404.585 249.851 403.804 249.07L379.021 224.287C378.24 223.506 378.415 222.488 379.412 222.012L387.609 218.102C388.606 217.627 390.048 217.874 390.829 218.655L415.611 243.438C416.392 244.219 416.217 245.238 415.22 245.713L407.023 249.623Z" fill="#465E82"/>
<path fill-rule="evenodd" clip-rule="evenodd" d="M482.592 213.578C481.595 214.054 480.154 213.806 479.373 213.025L448.974 182.627C448.193 181.846 448.368 180.827 449.365 180.351L457.563 176.441C458.56 175.966 460.001 176.213 460.782 176.995L491.181 207.393C491.962 208.174 491.787 209.193 490.79 209.668L482.592 213.578Z" fill="#465E82"/>
<path fill-rule="evenodd" clip-rule="evenodd" d="M577.055 168.522C576.058 168.997 574.617 168.75 573.836 167.969L536.417 130.55C535.636 129.769 535.811 128.75 536.808 128.275L545.006 124.365C546.003 123.889 547.444 124.137 548.225 124.918L585.644 162.337C586.425 163.118 586.25 164.136 585.253 164.612L577.055 168.522Z" fill="#465E82"/>
<ellipse cx="27.7812" cy="27.7812" rx="27.7812" ry="27.7812" transform="matrix(0.902585 -0.430511 0.707107 0.707107 -13.373 201.045)" fill="#465E82"/>
<rect width="525.811" height="42.0107" rx="8" transform="matrix(0.902585 -0.430511 0.707107 0.707107 470.021 465.842)" fill="#213450"/>
<path fill-rule="evenodd" clip-rule="evenodd" d="M534.571 452.709C533.79 451.928 533.965 450.909 534.962 450.434L604.742 417.151C605.739 416.675 607.18 416.923 607.962 417.704L614.716 424.458C615.497 425.239 615.322 426.258 614.325 426.733L544.545 460.016C543.548 460.492 542.107 460.244 541.326 459.463L534.571 452.709Z" fill="#465E82"/>
<path fill-rule="evenodd" clip-rule="evenodd" d="M699.699 373.947C698.918 373.166 699.093 372.148 700.09 371.672L838.368 305.717C839.364 305.242 840.806 305.489 841.587 306.271L848.341 313.025C849.122 313.806 848.947 314.824 847.95 315.3L709.673 381.255C708.676 381.73 707.235 381.483 706.454 380.702L699.699 373.947Z" fill="#465E82"/>
<circle cx="9.48627" cy="9.48627" r="9.48627" transform="matrix(0.902585 -0.430511 0.707107 0.707107 493.323 467.465)" fill="#465E82"/>
<rect width="525.811" height="42.0107" rx="8" transform="matrix(0.902585 -0.430511 0.707107 0.707107 431.69 427.512)" fill="#213450"/>
<path fill-rule="evenodd" clip-rule="evenodd" d="M496.241 414.379C495.46 413.598 495.635 412.579 496.632 412.104L534.61 393.99C535.607 393.514 537.048 393.762 537.829 394.543L544.583 401.297C545.364 402.078 545.189 403.097 544.192 403.572L506.215 421.686C505.218 422.162 503.777 421.914 502.996 421.133L496.241 414.379Z" fill="#465E82"/>
<path fill-rule="evenodd" clip-rule="evenodd" d="M661.369 335.617C660.588 334.836 660.763 333.818 661.76 333.342L740.102 295.975C741.099 295.499 742.541 295.747 743.322 296.528L750.076 303.282C750.857 304.063 750.682 305.082 749.685 305.558L671.343 342.925C670.346 343.4 668.905 343.153 668.123 342.372L661.369 335.617Z" fill="#465E82"/>
<circle cx="9.48627" cy="9.48627" r="9.48627" transform="matrix(0.902585 -0.430511 0.707107 0.707107 454.993 429.135)" fill="#465E82"/>
<rect width="525.811" height="42.0107" rx="8" transform="matrix(0.902585 -0.430511 0.707107 0.707107 393.36 389.182)" fill="#213450"/>
<path fill-rule="evenodd" clip-rule="evenodd" d="M457.911 376.049C457.13 375.268 457.305 374.249 458.302 373.774L512.181 348.075C513.178 347.599 514.619 347.847 515.4 348.628L522.154 355.382C522.935 356.163 522.76 357.182 521.763 357.658L467.885 383.356C466.888 383.832 465.446 383.584 464.665 382.803L457.911 376.049Z" fill="#465E82"/>
<path fill-rule="evenodd" clip-rule="evenodd" d="M623.039 297.287C622.258 296.506 622.433 295.488 623.43 295.012L810.634 205.72C811.631 205.245 813.072 205.492 813.853 206.274L820.608 213.028C821.389 213.809 821.214 214.827 820.217 215.303L633.013 304.595C632.016 305.07 630.574 304.822 629.793 304.041L623.039 297.287Z" fill="#465E82"/>
<circle cx="9.48627" cy="9.48627" r="9.48627" transform="matrix(0.902585 -0.430511 0.707107 0.707107 416.663 390.805)" fill="#465E82"/>
<g opacity="0.3" filter="url(#filter1_f_1301_18023)">
<rect width="502.773" height="42.0107" rx="8" transform="matrix(0.902585 -0.430511 0.707107 0.707107 392.581 341.432)" fill="#5772FF"/>
</g>
<rect width="525.811" height="42.0107" rx="8" transform="matrix(0.902585 -0.430511 0.707107 0.707107 361.613 332.143)" fill="#3959FF"/>
<path fill-rule="evenodd" clip-rule="evenodd" d="M426.164 319.01C425.383 318.229 425.558 317.21 426.555 316.735L506.12 278.784C507.117 278.309 508.559 278.556 509.34 279.337L516.094 286.091C516.875 286.872 516.7 287.891 515.703 288.367L436.138 326.317C435.141 326.793 433.699 326.545 432.918 325.764L426.164 319.01Z" fill="#8EA0FF"/>
<path fill-rule="evenodd" clip-rule="evenodd" d="M591.292 240.248C590.511 239.467 590.686 238.448 591.683 237.973L710.39 181.353C711.387 180.877 712.828 181.125 713.609 181.906L720.363 188.66C721.144 189.441 720.969 190.46 719.972 190.935L601.266 247.556C600.269 248.031 598.827 247.783 598.046 247.002L591.292 240.248Z" fill="#8EA0FF"/>
<circle cx="9.48628" cy="9.48628" r="9.48628" transform="matrix(0.902585 -0.430511 0.707107 0.707107 384.916 333.766)" fill="#8EA0FF"/>
<path d="M31.4782 207.959L31.4777 207.959C34.3875 206.571 34.816 203.515 32.4347 201.134C30.0531 198.752 25.7633 197.947 22.8532 199.335C19.9426 200.723 19.5146 203.778 21.8954 206.16L21.895 206.16C24.2758 208.541 28.5659 209.346 31.4756 207.959L31.4782 207.959ZM32.7103 209.191C29.4444 210.749 24.5758 215.509 27.853 218.787L30.317 221.251L49.8877 211.916L47.4237 209.452C44.1465 206.175 35.9761 207.633 32.7103 209.191Z" fill="#213450"/>
<path d="M588.291 305.733C608.736 343.564 591.458 386.155 555.018 413.305" stroke="#3959FF" stroke-width="2" stroke-linecap="round" stroke-dasharray="6 6"/>
<path d="M578.597 306.671C580.242 302.37 581.933 298.546 578.537 292.917C581.458 295.346 588.15 298.535 596.219 301.418" stroke="#3959FF" stroke-width="2" stroke-linecap="round" stroke-dasharray="6 6"/>
<g filter="url(#filter2_d_1301_18023)">
<rect width="838.858" height="622.029" rx="24" transform="matrix(0.902585 -0.430511 0.707107 0.707107 670 511.139)" fill="#0F1E34"/>
</g>
<rect width="525.811" height="299.495" rx="8" transform="matrix(0.902585 -0.430511 0.707107 0.707107 943.382 423.203)" fill="#213450"/>
<rect width="298.14" height="113.835" rx="8" transform="matrix(0.902585 -0.430511 0.707107 0.707107 1086.77 523.232)" fill="#0F1E34"/>
<rect width="185.66" height="107.059" rx="8" transform="matrix(0.902585 -0.430511 0.707107 0.707107 736.666 521.801)" fill="#213450"/>
<path fill-rule="evenodd" clip-rule="evenodd" d="M997.87 432.528C996.308 430.966 996.658 428.928 998.652 427.977L1340.03 265.146C1342.03 264.195 1344.91 264.69 1346.47 266.253L1355.19 274.97C1356.75 276.532 1356.4 278.569 1354.41 279.52L1013.03 442.351C1011.03 443.302 1008.15 442.807 1006.59 441.245L997.87 432.528Z" fill="#465E82"/>
<path fill-rule="evenodd" clip-rule="evenodd" d="M1020.41 455.069C1019.63 454.287 1019.81 453.269 1020.8 452.793L1270.39 333.747C1271.39 333.272 1272.83 333.519 1273.61 334.3L1280.36 341.054C1281.14 341.836 1280.97 342.854 1279.97 343.33L1030.39 462.376C1029.39 462.851 1027.95 462.604 1027.17 461.823L1020.41 455.069Z" fill="#0F1E34"/>
<path fill-rule="evenodd" clip-rule="evenodd" d="M1039.58 474.235C1038.8 473.453 1038.97 472.435 1039.97 471.959L1157.45 415.923C1158.45 415.447 1159.89 415.695 1160.67 416.476L1167.43 423.23C1168.21 424.011 1168.03 425.03 1167.04 425.505L1049.55 481.542C1048.55 482.017 1047.11 481.77 1046.33 480.989L1039.58 474.235Z" fill="#0F1E34"/>
<g opacity="0.3" filter="url(#filter3_f_1301_18023)">
</g>
<rect width="525.811" height="42.0107" rx="8" transform="matrix(0.902585 -0.430511 0.707107 0.707107 1187.61 642.143)" fill="#3959FF"/>
<g filter="url(#filter4_d_1301_18023)">
<rect width="838.858" height="622.029" rx="24" transform="matrix(0.902585 -0.430511 0.707107 0.707107 649 -189.861)" fill="#0F1E34"/>
</g>
<rect width="185.66" height="391.648" rx="8" transform="matrix(0.902585 -0.430511 0.707107 0.707107 821.074 -73.791)" fill="#213450"/>
<path fill-rule="evenodd" clip-rule="evenodd" d="M1103.08 134.141C1101.51 132.579 1101.86 130.542 1103.86 129.59L1170.03 98.0293C1172.02 97.0782 1174.9 97.5736 1176.47 99.1357L1180.39 103.061C1181.95 104.623 1181.6 106.661 1179.61 107.612L1113.44 139.173C1111.45 140.124 1108.56 139.629 1107 138.067L1103.08 134.141Z" fill="#465E82"/>
<path fill-rule="evenodd" clip-rule="evenodd" d="M1083.91 114.975C1082.35 113.413 1082.7 111.375 1084.69 110.424L1150.86 78.8633C1152.86 77.9122 1155.74 78.4075 1157.3 79.9696L1161.23 83.8954C1162.79 85.4575 1162.44 87.4948 1160.45 88.4458L1094.28 120.007C1092.28 120.958 1089.4 120.463 1087.84 118.901L1083.91 114.975Z" fill="#465E82"/>
<path fill-rule="evenodd" clip-rule="evenodd" d="M977.545 8.60968C975.983 7.04758 976.333 5.01026 978.327 4.05921L1044.5 -27.502C1046.49 -28.453 1049.37 -27.9577 1050.94 -26.3956L1054.86 -22.4699C1056.42 -20.9078 1056.07 -18.8705 1054.08 -17.9194L987.91 13.6418C985.916 14.5928 983.033 14.0975 981.471 12.5354L977.545 8.60968Z" fill="#465E82"/>
<path fill-rule="evenodd" clip-rule="evenodd" d="M1122.24 153.307C1120.68 151.745 1121.03 149.708 1123.02 148.756L1189.19 117.195C1191.19 116.244 1194.07 116.74 1195.63 118.302L1199.56 122.227C1201.12 123.789 1200.77 125.827 1198.78 126.778L1132.61 158.339C1130.61 159.29 1127.73 158.795 1126.17 157.233L1122.24 153.307Z" fill="#465E82"/>
<rect width="13.5518" height="13.5518" rx="5" transform="matrix(0.902585 -0.430511 0.707107 0.707107 931.088 -1.7168)" fill="#465E82"/>
<rect width="13.5518" height="13.5518" rx="5" transform="matrix(0.902585 -0.430511 0.707107 0.707107 1075.79 142.98)" fill="#465E82"/>
<rect width="13.5518" height="13.5518" rx="5" transform="matrix(0.902585 -0.430511 0.707107 0.707107 1056.62 123.816)" fill="#465E82"/>
<rect width="13.5518" height="13.5518" rx="5" transform="matrix(0.902585 -0.430511 0.707107 0.707107 950.253 17.4492)" fill="#465E82"/>
<rect width="13.5518" height="13.5518" rx="5" transform="matrix(0.902585 -0.430511 0.707107 0.707107 1094.95 162.146)" fill="#465E82"/>
<path fill-rule="evenodd" clip-rule="evenodd" d="M977.54 44.7365C976.759 43.9554 976.934 42.9368 977.931 42.4612L1039.15 13.262C1040.15 12.7864 1041.59 13.0341 1042.37 13.8152L1049.12 20.5693C1049.9 21.3504 1049.73 22.369 1048.73 22.8445L987.514 52.0438C986.517 52.5194 985.075 52.2717 984.294 51.4906L977.54 44.7365Z" fill="#0F1E34"/>
<path fill-rule="evenodd" clip-rule="evenodd" d="M1013.95 81.1505C1013.17 80.3695 1013.35 79.3508 1014.35 78.8753L1100.03 38.0076C1101.02 37.5321 1102.46 37.7797 1103.25 38.5608L1110 45.3149C1110.78 46.096 1110.61 47.1146 1109.61 47.5902L1023.93 88.4579C1022.93 88.9334 1021.49 88.6857 1020.71 87.9047L1013.95 81.1505Z" fill="#0F1E34"/>
<path fill-rule="evenodd" clip-rule="evenodd" d="M995.747 62.9435C994.966 62.1625 995.141 61.1438 996.138 60.6683L1102.61 9.8824C1103.61 9.40688 1105.05 9.65455 1105.83 10.4356L1112.59 17.1898C1113.37 17.9708 1113.19 18.9895 1112.2 19.465L1005.72 70.2509C1004.72 70.7264 1003.28 70.4787 1002.5 69.6977L995.747 62.9435Z" fill="#0F1E34"/>
<rect width="525.811" height="42.0107" rx="8" transform="matrix(0.902585 -0.430511 0.707107 0.707107 1198.36 -1.81836)" fill="#213450"/>
<g opacity="0.3" filter="url(#filter5_f_1301_18023)">
</g>
</g>
<defs>
<filter id="filter0_d_1301_18023" x="-184.887" y="-167.568" width="1254.75" height="866.117" filterUnits="userSpaceOnUse" color-interpolation-filters="sRGB">
<feFlood flood-opacity="0" result="BackgroundImageFix"/>
<feColorMatrix in="SourceAlpha" type="matrix" values="0 0 0 0 0 0 0 0 0 0 0 0 0 0 0 0 0 0 127 0" result="hardAlpha"/>
<feMorphology radius="10" operator="erode" in="SourceAlpha" result="effect1_dropShadow_1301_18023"/>
<feOffset dy="25"/>
<feGaussianBlur stdDeviation="25"/>
<feColorMatrix type="matrix" values="0 0 0 0 0.021875 0 0 0 0 0.0395148 0 0 0 0 0.125 0 0 0 1 0"/>
<feBlend mode="normal" in2="BackgroundImageFix" result="effect1_dropShadow_1301_18023"/>
<feBlend mode="normal" in="SourceGraphic" in2="effect1_dropShadow_1301_18023" result="shape"/>
</filter>
<filter id="filter1_f_1301_18023" x="366.285" y="97.459" width="536.093" height="301.201" filterUnits="userSpaceOnUse" color-interpolation-filters="sRGB">
<feFlood flood-opacity="0" result="BackgroundImageFix"/>
<feBlend mode="normal" in="SourceGraphic" in2="BackgroundImageFix" result="shape"/>
<feGaussianBlur stdDeviation="15" result="effect1_foregroundBlur_1301_18023"/>
</filter>
<filter id="filter2_d_1301_18023" x="641.113" y="142.432" width="1254.75" height="866.117" filterUnits="userSpaceOnUse" color-interpolation-filters="sRGB">
<feFlood flood-opacity="0" result="BackgroundImageFix"/>
<feColorMatrix in="SourceAlpha" type="matrix" values="0 0 0 0 0 0 0 0 0 0 0 0 0 0 0 0 0 0 127 0" result="hardAlpha"/>
<feMorphology radius="10" operator="erode" in="SourceAlpha" result="effect1_dropShadow_1301_18023"/>
<feOffset dy="25"/>
<feGaussianBlur stdDeviation="25"/>
<feColorMatrix type="matrix" values="0 0 0 0 0.021875 0 0 0 0 0.0395148 0 0 0 0 0.125 0 0 0 1 0"/>
<feBlend mode="normal" in2="BackgroundImageFix" result="effect1_dropShadow_1301_18023"/>
<feBlend mode="normal" in="SourceGraphic" in2="effect1_dropShadow_1301_18023" result="shape"/>
</filter>
<filter id="filter3_f_1301_18023" x="1192.29" y="407.459" width="536.093" height="301.201" filterUnits="userSpaceOnUse" color-interpolation-filters="sRGB">
<feFlood flood-opacity="0" result="BackgroundImageFix"/>
<feBlend mode="normal" in="SourceGraphic" in2="BackgroundImageFix" result="shape"/>
<feGaussianBlur stdDeviation="15" result="effect1_foregroundBlur_1301_18023"/>
</filter>
<filter id="filter4_d_1301_18023" x="620.113" y="-558.568" width="1254.75" height="866.117" filterUnits="userSpaceOnUse" color-interpolation-filters="sRGB">
<feFlood flood-opacity="0" result="BackgroundImageFix"/>
<feColorMatrix in="SourceAlpha" type="matrix" values="0 0 0 0 0 0 0 0 0 0 0 0 0 0 0 0 0 0 127 0" result="hardAlpha"/>
<feMorphology radius="10" operator="erode" in="SourceAlpha" result="effect1_dropShadow_1301_18023"/>
<feOffset dy="25"/>
<feGaussianBlur stdDeviation="25"/>
<feColorMatrix type="matrix" values="0 0 0 0 0.021875 0 0 0 0 0.0395148 0 0 0 0 0.125 0 0 0 1 0"/>
<feBlend mode="normal" in2="BackgroundImageFix" result="effect1_dropShadow_1301_18023"/>
<feBlend mode="normal" in="SourceGraphic" in2="effect1_dropShadow_1301_18023" result="shape"/>
</filter>
<filter id="filter5_f_1301_18023" x="1171.29" y="-293.541" width="536.093" height="301.201" filterUnits="userSpaceOnUse" color-interpolation-filters="sRGB">
<feFlood flood-opacity="0" result="BackgroundImageFix"/>
<feBlend mode="normal" in="SourceGraphic" in2="BackgroundImageFix" result="shape"/>
<feGaussianBlur stdDeviation="15" result="effect1_foregroundBlur_1301_18023"/>
</filter>
</defs>
</svg>
